<?xml version="1.0" encoding="utf-8"?>
<!-- Generator: Adobe Illustrator 24.2.1, SVG Export Plug-In . SVG Version: 6.00 Build 0)  -->
<svg version="1.1" id="Layer_1" xmlns="http://www.w3.org/2000/svg" xmlns:xlink="http://www.w3.org/1999/xlink" x="0px" y="0px"
	 viewBox="0 0 72 72" style="enable-background:new 0 0 72 72;" xml:space="preserve">
<style type="text/css">
	.st0{display:none;fill:#231F20;}
	.st1{fill:#FFFFFF;}
</style>
<g>
	<path class="st0" d="M82.1,30.5L81.3,33h-1.7l2.9-9.1h2.1l3,9.1h-1.8L85,30.5C85,30.5,82.1,30.5,82.1,30.5z M84.7,29.2L84,27
		c-0.2-0.6-0.3-1.2-0.5-1.7h0c-0.1,0.5-0.3,1.2-0.4,1.7l-0.7,2.2H84.7z M88.5,31.5c0.4,0.2,1.1,0.5,1.7,0.5c0.7,0,1.1-0.3,1.1-0.7
		c0-0.4-0.3-0.7-1.1-1c-1.3-0.4-1.8-1.1-1.8-1.9c0-1.2,1-2.1,2.5-2.1c0.7,0,1.4,0.2,1.8,0.4l-0.3,1.2c-0.4-0.2-0.9-0.4-1.4-0.4
		c-0.6,0-0.9,0.3-0.9,0.7c0,0.4,0.3,0.6,1.1,0.9c1.2,0.4,1.7,1,1.8,2c0,1.2-0.9,2.1-2.7,2.1c-0.8,0-1.5-0.2-2-0.5L88.5,31.5z
		 M93.9,31.5c0.4,0.2,1.1,0.5,1.7,0.5c0.7,0,1.1-0.3,1.1-0.7c0-0.4-0.3-0.7-1.1-1c-1.3-0.4-1.8-1.1-1.8-1.9c0-1.2,1-2.1,2.5-2.1
		c0.7,0,1.4,0.2,1.8,0.4l-0.3,1.2c-0.4-0.2-0.9-0.4-1.4-0.4c-0.6,0-0.9,0.3-0.9,0.7c0,0.4,0.3,0.6,1.1,0.9c1.2,0.4,1.7,1,1.8,2
		c0,1.2-0.9,2.1-2.7,2.1c-0.8,0-1.5-0.2-2-0.5L93.9,31.5z M102.3,33.2c-1.8,0-3.3-1.3-3.3-3.4c0-2.2,1.4-3.5,3.4-3.5
		c2,0,3.3,1.4,3.3,3.4C105.6,32.1,103.9,33.2,102.3,33.2L102.3,33.2z M102.3,32c0.9,0,1.6-0.9,1.6-2.3c0-1-0.5-2.2-1.6-2.2
		c-1.2,0-1.6,1.1-1.6,2.2C100.7,31,101.3,32,102.3,32C102.3,32,102.3,32,102.3,32z M111.6,32.8c-0.3,0.2-1,0.3-1.9,0.3
		c-2.1,0-3.4-1.3-3.4-3.4c0-2,1.3-3.5,3.7-3.5c0.6,0,1.2,0.1,1.6,0.3l-0.3,1.3c-0.3-0.1-0.7-0.3-1.3-0.3c-1.3,0-2,0.9-2,2.1
		c0,1.4,0.9,2.1,2,2.1c0.6,0,1-0.1,1.3-0.3L111.6,32.8z M113.5,25.5c-0.6,0-0.9-0.4-0.9-0.9c0-0.5,0.4-0.9,0.9-0.9
		c0.6,0,0.9,0.4,0.9,0.9C114.4,25.1,114.1,25.5,113.5,25.5L113.5,25.5z M112.7,33v-6.6h1.7V33H112.7z M121,31.5c0,0.6,0,1.2,0.1,1.6
		h-1.5l-0.1-0.7h0c-0.4,0.5-1.1,0.9-1.9,0.9c-1.3,0-2.1-1-2.1-2c0-1.6,1.5-2.5,3.9-2.5v-0.1c0-0.4-0.2-1.1-1.3-1.1
		c-0.6,0-1.3,0.2-1.8,0.5l-0.3-1.1c0.5-0.3,1.3-0.6,2.4-0.6c2.1,0,2.7,1.3,2.7,2.8L121,31.5L121,31.5z M119.4,29.8
		c-1.2,0-2.3,0.2-2.3,1.2c0,0.6,0.4,0.9,0.9,0.9c0.6,0,1.1-0.4,1.3-0.9c0-0.1,0-0.2,0-0.4V29.8L119.4,29.8z M124.4,24.8v1.7h1.6v1.2
		h-1.6v2.9c0,0.8,0.2,1.2,0.8,1.2c0.3,0,0.5,0,0.6-0.1l0,1.3c-0.2,0.1-0.7,0.2-1.2,0.2c-0.6,0-1.1-0.2-1.4-0.5
		c-0.4-0.4-0.5-1-0.5-1.8v-3.1h-0.9v-1.2h0.9v-1.2L124.4,24.8L124.4,24.8z M127.9,25.5c-0.6,0-0.9-0.4-0.9-0.9
		c0-0.5,0.4-0.9,0.9-0.9c0.6,0,0.9,0.4,0.9,0.9C128.8,25.1,128.4,25.5,127.9,25.5L127.9,25.5z M127,33v-6.6h1.7V33H127z M133.2,33.2
		c-1.9,0-3.3-1.3-3.3-3.4c0-2.2,1.4-3.5,3.4-3.5c2,0,3.3,1.4,3.3,3.4C136.5,32.1,134.8,33.2,133.2,33.2L133.2,33.2z M133.2,32
		c0.9,0,1.6-0.9,1.6-2.3c0-1-0.5-2.2-1.6-2.2c-1.2,0-1.6,1.1-1.6,2.2C131.6,31,132.2,32,133.2,32L133.2,32L133.2,32z M137.7,28.4
		c0-0.8,0-1.4-0.1-2h1.4l0.1,1h0c0.3-0.5,1-1.1,2.1-1.1c1.1,0,2.3,0.7,2.3,2.8V33H142v-3.7c0-0.9-0.4-1.7-1.3-1.7
		c-0.7,0-1.1,0.5-1.3,1c-0.1,0.1-0.1,0.3-0.1,0.5V33h-1.7L137.7,28.4L137.7,28.4L137.7,28.4z M148,33v-5.3h-0.9v-1.2h0.9v-0.3
		c0-0.9,0.2-1.7,0.8-2.2c0.5-0.5,1.1-0.6,1.7-0.6c0.4,0,0.8,0.1,1.1,0.2l-0.1,1.3c-0.2-0.1-0.5-0.1-0.7-0.1c-0.8,0-1.1,0.7-1.1,1.5
		v0.3h1.4v1.2h-1.4V33H148L148,33z M154.6,33.2c-1.9,0-3.3-1.3-3.3-3.4c0-2.2,1.4-3.5,3.4-3.5c2,0,3.3,1.4,3.3,3.4
		C158,32.1,156.3,33.2,154.6,33.2L154.6,33.2L154.6,33.2z M154.7,32c0.9,0,1.6-0.9,1.6-2.3c0-1-0.5-2.2-1.6-2.2
		c-1.2,0-1.6,1.1-1.6,2.2C153.1,31,153.7,32,154.7,32L154.7,32L154.7,32z M159.2,28.6c0-0.9,0-1.5-0.1-2.1h1.4l0.1,1.2h0
		c0.3-0.9,1.1-1.4,1.8-1.4c0.2,0,0.3,0,0.4,0v1.6c-0.2,0-0.3,0-0.5,0c-0.8,0-1.3,0.5-1.5,1.3c0,0.2,0,0.3,0,0.5V33h-1.7L159.2,28.6z
		 M86.8,47.8c-0.4,0.2-1.3,0.4-2.4,0.4c-2.9,0-4.6-1.8-4.6-4.6c0-3,2.1-4.8,4.9-4.8c1.1,0,1.9,0.2,2.2,0.4l-0.4,1.3
		c-0.6-0.2-1.2-0.4-1.8-0.4c-1.8,0-3.2,1.2-3.2,3.3c0,2,1.2,3.3,3.2,3.3c0.7,0,1.4-0.1,1.8-0.3L86.8,47.8z M90.6,48.2
		c-1.8,0-3.3-1.3-3.3-3.4c0-2.2,1.4-3.5,3.4-3.5c2,0,3.3,1.4,3.3,3.4C94,47.1,92.3,48.2,90.6,48.2L90.6,48.2z M90.7,47
		c0.9,0,1.6-0.9,1.6-2.3c0-1-0.5-2.2-1.6-2.2c-1.2,0-1.6,1.1-1.6,2.2C89,46,89.7,47,90.7,47L90.7,47z M95.1,43.4c0-0.8,0-1.4-0.1-2
		h1.4l0.1,1h0c0.3-0.5,0.9-1.1,2-1.1c0.9,0,1.5,0.5,1.8,1.2h0c0.2-0.4,0.5-0.6,0.8-0.8c0.4-0.3,0.8-0.4,1.4-0.4
		c1.1,0,2.2,0.7,2.2,2.9V48h-1.6v-3.6c0-1.1-0.4-1.7-1.2-1.7c-0.6,0-1,0.4-1.2,0.9c-0.1,0.2-0.1,0.4-0.1,0.6V48h-1.6v-3.8
		c0-0.9-0.4-1.6-1.1-1.6c-0.6,0-1,0.5-1.2,0.9c-0.1,0.2-0.1,0.4-0.1,0.6V48h-1.6L95.1,43.4L95.1,43.4z M106.4,43.6
		c0-0.9,0-1.6-0.1-2.2h1.5l0.1,1h0c0.5-0.7,1.3-1.2,2.3-1.2c1.5,0,2.8,1.3,2.8,3.4c0,2.4-1.5,3.5-3,3.5c-0.8,0-1.5-0.4-1.8-0.9h0
		v3.4h-1.7C106.4,50.7,106.4,43.6,106.4,43.6z M108,45.3c0,0.2,0,0.3,0,0.5c0.2,0.7,0.8,1.2,1.5,1.2c1.1,0,1.7-0.9,1.7-2.2
		c0-1.2-0.6-2.1-1.6-2.1c-0.7,0-1.3,0.5-1.5,1.2c0,0.1-0.1,0.3-0.1,0.4V45.3z M120,46.1c0,0.8,0,1.4,0.1,2h-1.4l-0.1-1h0
		c-0.3,0.5-0.9,1.1-2.1,1.1c-1.2,0-2.3-0.7-2.3-2.9v-3.9h1.7V45c0,1.1,0.4,1.8,1.2,1.8c0.7,0,1.1-0.5,1.3-0.9
		c0.1-0.1,0.1-0.3,0.1-0.5v-4h1.7L120,46.1L120,46.1L120,46.1L120,46.1L120,46.1z M123.5,39.8v1.7h1.6v1.2h-1.6v2.9
		c0,0.8,0.2,1.2,0.8,1.2c0.3,0,0.5,0,0.6-0.1l0,1.3c-0.2,0.1-0.7,0.2-1.2,0.2c-0.6,0-1.1-0.2-1.4-0.5c-0.4-0.4-0.5-1-0.5-1.9v-3.1
		h-0.9v-1.2h0.9v-1.2L123.5,39.8z M126.9,40.5c-0.6,0-0.9-0.4-0.9-0.9c0-0.5,0.4-0.9,0.9-0.9c0.6,0,0.9,0.4,0.9,0.9
		C127.9,40.1,127.5,40.5,126.9,40.5L126.9,40.5z M126.1,48v-6.6h1.7V48H126.1z M129.3,43.4c0-0.8,0-1.4-0.1-2h1.4l0.1,1h0
		c0.3-0.5,1-1.1,2.1-1.1c1.1,0,2.3,0.7,2.3,2.8V48h-1.7v-3.7c0-0.9-0.4-1.7-1.3-1.7c-0.7,0-1.1,0.5-1.3,1c-0.1,0.2-0.1,0.3-0.1,0.5
		V48h-1.7L129.3,43.4L129.3,43.4z M142.8,47.1c0,1.4-0.3,2.4-1,3c-0.7,0.6-1.6,0.8-2.5,0.8c-0.8,0-1.7-0.2-2.3-0.5l0.4-1.3
		c0.4,0.2,1.1,0.5,1.9,0.5c1.1,0,1.9-0.6,1.9-2V47h0c-0.4,0.6-1,1-1.9,1c-1.6,0-2.8-1.4-2.8-3.2c0-2.2,1.4-3.5,3-3.5
		c1,0,1.6,0.5,1.9,1h0l0.1-0.9h1.4c0,0.4-0.1,1-0.1,1.9L142.8,47.1L142.8,47.1z M141.2,44.1c0-0.2,0-0.3-0.1-0.4
		c-0.2-0.6-0.6-1.1-1.4-1.1c-0.9,0-1.6,0.8-1.6,2.1c0,1.1,0.6,2,1.6,2c0.6,0,1.2-0.4,1.4-1c0.1-0.2,0.1-0.4,0.1-0.6L141.2,44.1
		L141.2,44.1z M154.7,44.3c-0.1-1.2-0.1-2.6-0.1-3.8h0c-0.3,1.2-0.7,2.3-1.1,3.5l-1.3,3.9h-1.3l-1.2-3.9c-0.4-1.2-0.7-2.3-0.9-3.5h0
		c0,1.3-0.1,2.6-0.2,3.9l-0.2,3.7h-1.6l0.6-9.1h2.2l1.2,3.7c0.3,1.1,0.6,2.1,0.8,3.2h0c0.3-1.1,0.6-2.1,0.9-3.2l1.3-3.6h2.2l0.5,9.1
		h-1.6L154.7,44.3L154.7,44.3z M163.1,46.5c0,0.6,0,1.2,0.1,1.6h-1.5l-0.1-0.7h0c-0.4,0.5-1.1,0.9-1.9,0.9c-1.3,0-2.1-1-2.1-2
		c0-1.6,1.5-2.5,3.9-2.5v-0.1c0-0.4-0.2-1.1-1.3-1.1c-0.6,0-1.3,0.2-1.8,0.5l-0.3-1.1c0.5-0.3,1.3-0.6,2.4-0.6
		c2.1,0,2.7,1.3,2.7,2.8L163.1,46.5L163.1,46.5z M161.5,44.8c-1.2,0-2.3,0.2-2.3,1.2c0,0.6,0.4,0.9,0.9,0.9c0.7,0,1.1-0.4,1.3-0.9
		c0-0.1,0-0.2,0-0.4L161.5,44.8L161.5,44.8z M169.5,47.8c-0.4,0.2-1,0.3-1.9,0.3c-2.1,0-3.4-1.3-3.4-3.4c0-2,1.4-3.5,3.7-3.5
		c0.6,0,1.2,0.1,1.6,0.3l-0.3,1.3c-0.3-0.1-0.7-0.3-1.3-0.3c-1.3,0-2,0.9-2,2.1c0,1.3,0.9,2.1,2,2.1c0.4,0,0.9-0.1,1.3-0.3
		L169.5,47.8z M170.5,38.4h1.7v3.9h0c0.2-0.3,0.5-0.6,0.8-0.7c0.4-0.2,0.7-0.3,1.1-0.3c1.1,0,2.3,0.7,2.3,2.9V48h-1.7v-3.7
		c0-0.9-0.4-1.7-1.3-1.7c-0.6,0-1.1,0.4-1.3,0.9c-0.1,0.2-0.1,0.3-0.1,0.5V48h-1.7L170.5,38.4C170.5,38.4,170.5,38.4,170.5,38.4z
		 M178.9,40.5c-0.6,0-0.9-0.4-0.9-0.9c0-0.5,0.4-0.9,0.9-0.9c0.6,0,0.9,0.4,0.9,0.9C179.8,40.1,179.5,40.5,178.9,40.5L178.9,40.5z
		 M178,48v-6.6h1.7V48H178z M181.3,43.4c0-0.8,0-1.4-0.1-2h1.4l0.1,1h0c0.3-0.5,1-1.1,2.1-1.1c1.1,0,2.3,0.7,2.3,2.8V48h-1.7v-3.7
		c0-0.9-0.4-1.7-1.3-1.7c-0.7,0-1.1,0.5-1.3,1c-0.1,0.2-0.1,0.3-0.1,0.5V48h-1.7L181.3,43.4L181.3,43.4z M190,45.2
		c0,1.2,1,1.7,2,1.7c0.8,0,1.3-0.1,1.8-0.3l0.2,1.1c-0.6,0.2-1.4,0.4-2.3,0.4c-2.1,0-3.4-1.3-3.4-3.3c0-1.8,1.1-3.5,3.2-3.5
		c2.1,0,2.8,1.8,2.8,3.2c0,0.3,0,0.6-0.1,0.7H190z M192.9,44c0-0.6-0.3-1.6-1.4-1.6c-1,0-1.5,0.9-1.5,1.6H192.9L192.9,44z
		 M195.6,43.6c0-0.9,0-1.5-0.1-2.1h1.4l0.1,1.2h0c0.3-0.9,1.1-1.4,1.8-1.4c0.2,0,0.3,0,0.4,0v1.6c-0.2,0-0.3,0-0.5,0
		c-0.8,0-1.3,0.5-1.5,1.3c0,0.2,0,0.3,0,0.5V48h-1.7L195.6,43.6L195.6,43.6z M201.5,41.5l1.2,3.5c0.1,0.4,0.3,0.9,0.4,1.3h0
		c0.1-0.4,0.2-0.9,0.4-1.3l1-3.5h1.8l-1.6,4.5c-0.9,2.5-1.5,3.6-2.3,4.2c-0.7,0.6-1.3,0.8-1.7,0.8l-0.4-1.4c0.3-0.1,0.6-0.2,1-0.5
		c0.3-0.2,0.7-0.6,0.9-1c0.1-0.1,0.1-0.2,0.1-0.3c0-0.1,0-0.2-0.1-0.3l-2.4-6H201.5z"/>
	
		<image style="overflow:visible;enable-background:new    ;" width="304" height="304" xlink:href="27D49304B62A515.png"  transform="matrix(0.2368 0 0 0.2368 0 0)">
	</image>
	<circle class="st1" cx="36" cy="36" r="22.1"/>
	
		<image style="overflow:visible;enable-background:new    ;" width="171" height="171" xlink:href="27D49304B62A517.png"  transform="matrix(0.233 0 0 0.233 16.1347 16.1353)">
	</image>
	<path class="st1" d="M24.4,39.9c-0.2,0.2-0.4,0.3-0.5,0.5c-0.2,0.2-0.4,0.3-0.6,0.4C23,40.9,22.7,41,22.5,41
		c-0.3,0.1-0.6,0.1-1.1,0.1c-0.8,0-1.5-0.3-2.1-0.9c-0.6-0.6-0.8-1.3-0.8-2.1c0-0.7,0.1-1.3,0.4-1.7c0.3-0.4,0.7-0.8,1.2-1
		c0.5-0.3,1.2-0.4,1.9-0.5c0.8-0.1,1.6-0.2,2.4-0.2v-0.1c0-0.5-0.2-0.9-0.6-1.1c-0.4-0.2-1-0.3-1.7-0.3c-0.4,0-0.8,0.1-1.2,0.2
		s-0.9,0.3-1.4,0.5h-0.3v-2.3c0.3-0.1,0.8-0.2,1.4-0.3c0.7-0.1,1.3-0.2,2-0.2c1.6,0,2.9,0.3,3.6,0.8c0.8,0.5,1.1,1.4,1.1,2.5v6.5h-3
		L24.4,39.9C24.4,39.9,24.4,39.9,24.4,39.9z M24.4,38.4v-2c-0.5,0.1-0.9,0.1-1.2,0.1c-0.3,0-0.6,0.1-0.9,0.2
		c-0.3,0.1-0.5,0.2-0.6,0.4c-0.1,0.2-0.2,0.4-0.2,0.7c0,0.4,0.1,0.8,0.4,0.9c0.2,0.2,0.6,0.2,1.1,0.2c0.3,0,0.5-0.1,0.8-0.2
		C24,38.8,24.2,38.6,24.4,38.4z M34,41.1c-0.8,0-1.5-0.1-2.2-0.3c-0.6-0.2-1.2-0.5-1.7-0.9c-0.5-0.4-0.9-1-1.1-1.6
		c-0.3-0.6-0.4-1.4-0.4-2.2c0-0.9,0.1-1.7,0.4-2.3c0.3-0.6,0.7-1.2,1.2-1.6c0.5-0.4,1.1-0.7,1.7-0.9c0.7-0.2,1.3-0.3,2-0.3
		c1.1,0,2.2,0.3,3.2,0.8v2.6h-0.4c-0.1-0.1-0.3-0.3-0.4-0.4c-0.2-0.1-0.4-0.3-0.6-0.4c-0.2-0.1-0.5-0.2-0.7-0.3
		c-0.3-0.1-0.6-0.1-0.9-0.1c-0.8,0-1.4,0.3-1.8,0.8c-0.4,0.5-0.6,1.2-0.6,2.1c0,1,0.2,1.7,0.7,2.1c0.4,0.5,1,0.7,1.8,0.7
		c0.4,0,0.7,0,1-0.1c0.5-0.1,0.9-0.4,1.2-0.7c0.1-0.1,0.3-0.2,0.4-0.3h0.4v2.6c-0.2,0.1-0.4,0.2-0.6,0.3c-0.2,0.1-0.5,0.2-0.7,0.2
		C35.5,41,35.2,41,35,41.1C34.6,41.1,34.3,41.1,34,41.1z M50.1,40.9v-4.8c0-0.5,0-0.9,0-1.2c0-0.3-0.1-0.6-0.2-0.8
		c-0.1-0.2-0.2-0.3-0.4-0.4c-0.2-0.1-0.4-0.1-0.8-0.1c-0.2,0-0.5,0.1-0.7,0.1c-0.3,0.1-0.5,0.3-0.7,0.4v6.8h-3v-4.8
		c0-0.5,0-0.9,0-1.2c0-0.3-0.1-0.6-0.2-0.8c-0.1-0.2-0.2-0.3-0.4-0.4c-0.2-0.1-0.4-0.1-0.7-0.1c-0.2,0-0.5,0.1-0.7,0.2
		c-0.2,0.1-0.5,0.3-0.7,0.4v6.8h-3v-9.6h3v1.1c0.4-0.4,0.9-0.7,1.4-1c0.4-0.2,0.9-0.4,1.5-0.4c0.6,0,1.1,0.1,1.5,0.4
		c0.4,0.3,0.8,0.7,1,1.2c0.6-0.5,1.1-0.9,1.6-1.2s1-0.4,1.5-0.4c0.4,0,0.8,0.1,1.2,0.2c0.4,0.1,0.7,0.4,0.9,0.6
		c0.3,0.3,0.5,0.7,0.6,1.1c0.1,0.4,0.2,1,0.2,1.7v6.2L50.1,40.9z"/>
</g>
</svg>
