<svg id="Layer_1" data-name="Layer 1" xmlns="http://www.w3.org/2000/svg" xmlns:xlink="http://www.w3.org/1999/xlink" viewBox="0 0 500 500"><defs><style>.cls-1{fill:url(#linear-gradient);}.cls-10,.cls-2,.cls-8,.cls-9{stroke:#fff;stroke-miterlimit:10;}.cls-2{stroke-width:15px;fill:url(#linear-gradient-2);}.cls-3{fill:#999;opacity:0.15;isolation:isolate;}.cls-4,.cls-9{fill:#fff;}.cls-5{fill:#a0ceee;}.cls-6{fill:#5fa4ca;}.cls-7{fill:#60a4cb;}.cls-10,.cls-8{fill:none;}.cls-8,.cls-9{stroke-width:2px;}</style><linearGradient id="linear-gradient" x1="250" y1="1080" x2="250" y2="580" gradientTransform="translate(0 -580)" gradientUnits="userSpaceOnUse"><stop offset="0" stop-color="#60a4cb"/><stop offset="1" stop-color="#a0ceee"/></linearGradient><linearGradient id="linear-gradient-2" x1="250.4" y1="684.8" x2="250.4" y2="977.2" gradientTransform="translate(0 -580)" gradientUnits="userSpaceOnUse"><stop offset="0" stop-color="#5fa4ca"/><stop offset="1" stop-color="#9fceee"/></linearGradient></defs><g id="Layer_1-2" data-name="Layer 1"><polygon id="ACM_Diamond" data-name="ACM Diamond" class="cls-1" points="500 250 250 500 0 250 250 0 500 250"/><circle id="Inner_Circle" data-name="Inner Circle" class="cls-2" cx="250.4" cy="251" r="146.2"/></g><g id="Layer_7" data-name="Layer 7"><path class="cls-3" d="M155.2,153.5c1.3-5,2.4-5,3.5-7.3,1.4-3.1.7-3.6,4-6.1,1.2-.9,4.1-5.2,7.6-5.4,1.1-.1,4.5-2.6,12.5.7,3.6,1.5,11.1,3.5,11.1,3.5a85.61,85.61,0,0,1,9.7,5.8c4.3,2.8,7.7,5.3,8.8,6.2,2.9,2.5,3.4,2.9,3.4,2.9s-.4.1,1.8-.6a102.82,102.82,0,0,1,16.6-4.4,64.55,64.55,0,0,1,18.5-.7c6.3.6,11.2,1.1,15.1,3.3a22.26,22.26,0,0,0,4.9,1.4,18.58,18.58,0,0,0,5.3.4c3.8-.5,7.1-.1,12.5.7a60.9,60.9,0,0,1,14,3.6,59.24,59.24,0,0,1,10.9,5.2l2.7,1.7a46.34,46.34,0,0,1,7-4.7c5-2.9,7.6-3.6,10.4-4.1,1.7-.3,9.2,2.5,11.5,3.7,3,1.5,4,4.9,4.9,8.5,1.3,5,2.7,7.7,2.4,11.4-.5,6.3-.7,11-1.4,13,0,0-.8,6-3.7,10-.6.8.3,3.2-.4,3.6l-1.7,2.9c-.3.5-.6,1.3.8,2.5,1.8,1.5,2,1.3,3.4,5a31.75,31.75,0,0,1,1.9,10.4c0,2.9-.3,4.3-.3,6.3l-.1,3.7s-2.3,4.6-1.9,5.6a96.16,96.16,0,0,1,4.2,12.2,37,37,0,0,1,1.1,13,38.51,38.51,0,0,1-3.4,12.2c-2.8,6-4.7,9.8-6.7,11.9-3.8,4-7.8,9-7.8,9a22.3,22.3,0,0,0-1.3,5.1c.2,4.4-1.7,7.8-2.7,11.1a30.3,30.3,0,0,1-5.3,10.8c-1.9,2.4-2.3,2.8-3.3,5.2-1.3,2.8,0,5.1.1,7.8.2,6.1-3.1,10.8-4.3,14.1a35.39,35.39,0,0,1-7.9,12.6c-7.3,7.9-15.8,10.8-21.1,12.6-3.7,1.2-18.3,6.9-35.5,2.4,0,0-16.1-3.1-24.4-9.4-3-2.3-8.8-5.1-11.1-8.4-.5-.3-8.8-12.5-8.3-12.5,1.6,0,3.8.4,4.1-.6.2-.5-2.9-6.2-2.9-6.2-3.9-5.1-3.8-4.1-3.8-5.5,0,0,5.1.8,5.8,0s-.8-1.6-2.3-4.1c-.5-.8-4.4-4.9-6-6.5l-4.4-4.4c-5.8-5.8-1.4-2-5.8-5.8-18-15.7-7.2-6.4-12.7-10.8-11.6-9.3-9.9-8.2-13.5-11.9-8.6-8.7-10.6-17.8-12.3-21.9-.9-2.2-3.3-11-4.4-23a90.87,90.87,0,0,1,.4-19.6,112.38,112.38,0,0,0,.6-12.2s-3.1-11.2-4.5-14.9c-2.2-5.6-1.1-10.5-1.4-20.4a65.69,65.69,0,0,1,2-19.6C152.3,161.7,153,161.6,155.2,153.5Z"/><path class="cls-4" d="M162,161.1a49.15,49.15,0,0,1,2.4-7.9c1.3-2.9,2.6-5.7,5.5-7.9a12.36,12.36,0,0,1,6.6-2.8c1-.1,2-.4,9.3,2.7a52.22,52.22,0,0,1,6.2,3.2,43.34,43.34,0,0,1,7.6,4.4,76.35,76.35,0,0,1,7.3,5.3c2.6,2.3,5.5,5.5,5.5,5.5s5.5-2.1,7.5-2.8a90.57,90.57,0,0,1,15.2-4.1A61.17,61.17,0,0,1,252,156c5.7.6,10.3,1.1,13.8,3.1a16.78,16.78,0,0,0,4.5,1.3,19.31,19.31,0,0,0,4.8.4c3.5-.5,6.5,0,11.4.7a56.86,56.86,0,0,1,12.8,3.4,56.28,56.28,0,0,1,10,4.8c2.5,1.6,6.6,4.9,6.6,4.9s5-2.5,10-5.5c4.6-2.7,5.4-3.6,7.9-4.1a9.35,9.35,0,0,1,5.9.3c2.8,1.4,3.6,4.6,4.5,7.9a35.13,35.13,0,0,1,.7,11.8,49.36,49.36,0,0,1-2.4,12.1,43.86,43.86,0,0,1-4.5,9.3c-.5.8-1.6,2.9-2.3,3.4l.3-.3c-.2.5,1.3,2.4,2.6,3.5,1.6,1.4,2.2,3.1,3.5,6.6a28.58,28.58,0,0,1,1.7,9.7c0,2.7,0,4.3-1,5.9a21.33,21.33,0,0,1-3.1,3.5s1.7,4.3,2.1,5.2a84.48,84.48,0,0,1,3.8,11.4,37.46,37.46,0,0,1,1,12.1,35.84,35.84,0,0,1-3.1,11.4,38.71,38.71,0,0,1-7.6,11.1,86.8,86.8,0,0,1-8.3,7.6s.3,4.1.3,5.5c.2,4.1-.8,7.3-1.7,10.4-1.2,4-2.1,7-4.5,10-1.8,2.3-2.8,2.6-3.8,4.8-1.2,2.6-.8,4.8-.7,7.3a36.68,36.68,0,0,1-9.7,24.9c-6.6,7.4-14.5,10.1-19.4,11.8a56.47,56.47,0,0,1-32.5,1s-9.8-1.8-17.4-7.6c-2.8-2.1-5.4-3.5-7.4-6.5-.4-.3-1.7-1.4-1.2-1.4,1.5,0,3.8.3,4-.6.1-.5,1,.9-2.1-1-4.1-2.6-5.4-5.6-6.3-6.6-1.6-1.7-3-4.1-2.4-4.8s3.4.9,4.1,0c.6-.7-.4-2.3-1.4-4.1-2-3.9-2.4-5.6-3.9-7.9-3.9-6-4.9-7.5-8.9-11.1-16.5-14.6-14-12.1-19.1-16.2-10.6-8.6-9.7-7.7-13.1-11.1A66.59,66.59,0,0,1,167,273.9a80.2,80.2,0,0,1-4.8-21.4,94.26,94.26,0,0,1,.3-18.3c.6-6.3,2.1-15.2,2.1-15.2s-3.2-6.6-4.5-10c-2-5.2-2.1-9.8-2.4-19-.2-7.6-.4-12.3,1-18.3C159.8,168.8,160,168.7,162,161.1Z"/></g><g id="Layer_5" data-name="Layer 5"><path class="cls-5" d="M230.1,187.8c-1-.8-1.8-2.3-4.8-6.2a76.51,76.51,0,0,1-5-7.6c25-10.9,54.8-5.7,72.8,13.8l-.1-2.6a26,26,0,0,0-9.7-12.3c6.4,3.6,34.7,4.1,39.9,39.6l1.6,2.6c5,3.1,11.4,14.3,5,16.7-9.9,3.8-29.3,17.5-21.8-1.1,0,0-9.3,3.1-9.8,12.4-.6,11.7,5.2,21,7.3,31.1,1.1,5.3.7-11.4,1.2-16.6l4.5,1s-3.4-3.3-.9-8.7c0,0,9.2-1.7,14-5.8,0,0,2.7,1.5,3.1,3.1a8.29,8.29,0,0,1,.3,3.6c2.2-2,3.4-6.7,3.4-6.7,13.2,23.3,5.4,33.2-10.4,43.8a116,116,0,0,1-10-7.9l-1.4,1.3c-.7.9,1.8,3.1.8,5.2-3.5,3.1-18.4,5.8-22.5.3-4.1-5.7-20.9-11.4-33.7-12.4s-24.9,4-40.1-4.1c-2.8-.9,5.5,8.8,5.5,8.8-20.9-1.7-42.7-24.9-46.1-39.5l1.9-15.3c4,2.3,9.1,1.8,9.1,1.8-4.3-5.2-13.7-25.5-13.7-41.5,0-1.4,1.5-24.8,7.1-30.1a29.24,29.24,0,0,1,9.7,3.2c8.8,4.8,11.9,10.4,13.5,11.8,6,5.4,13.7,15,18.1,16.3C222.2,187.2,227.9,188.7,230.1,187.8Z"/><path class="cls-5" d="M325.5,184.7c2.1-.7,9.7-4.4,12.2-10.1a56.69,56.69,0,0,1-.9,13c-1.6,7.2-5,13.5-5.1,10.7C331.6,194.2,325.5,184.7,325.5,184.7Z"/></g><g id="Layer_4" data-name="Layer 4"><path class="cls-6" d="M226.1,226.6c-.4,0-.9,1.7-1.4,3.3-.8,2.7-.3.9-.7,2.2-1.7,4.8.4,10.8.8,11.8a19.45,19.45,0,0,0,5.1,8.1,27.89,27.89,0,0,0,7.2,5,33.31,33.31,0,0,0,6.5,2.8,27.93,27.93,0,0,0,6.6,1.2,13.72,13.72,0,0,0,5.4-.2,33.13,33.13,0,0,1,4.1-.5l-.8-.8a19,19,0,0,1,3.4,3.4,11,11,0,0,1,1.5,3.1,39.81,39.81,0,0,1,1.6,5l.8-.8a8,8,0,0,0,1.7-2c.5-.9.4-1.7-.4-4.3a36.72,36.72,0,0,0-2.1-6.1c-.8-1.8-1.8-4.3-3.5-4.5-.7-.1-4.1.1-4.4,0-2.6-.2-4.4.2-7.2-.4-5.7-1.3-5.9-.6-9.5-2.5-3.4-1.8-8.6-3.6-10.7-11.7a111.41,111.41,0,0,1-2.2-11.4C226.8,224.5,226.7,226.5,226.1,226.6Z"/><path class="cls-6" d="M307.6,257.6l-1.2-.4c-.4,1.4-.4,6.4.1,10.3,0,0,.3-.7,3.4-6.5l-.8.8a36,36,0,0,0,7.6.5,24.14,24.14,0,0,0,6.9-1.4,14.06,14.06,0,0,0,4.5-2.6,12.37,12.37,0,0,0,3.1-3.7s.7-.6,1.8-4.3h0a5.56,5.56,0,0,0,.3-1.5c0-1.5-.7-2-2.5-4.5l-.1-.1c-.3,0-.9,1.7-1.3,3.4a18.67,18.67,0,0,1-1.5,3.2c-1,1.9-2.1,4.2-3,4.8-1.3.8-2.2,2.1-5,2.8a18.61,18.61,0,0,1-5.2.7,9.3,9.3,0,0,1-3.9-.6"/><path class="cls-6" d="M212.9,270.8c-.2.3-.1,1.1,2,3.9s2.4,3,3.2,4.1c2.8,4.1,2.2,7.5,4.1,8a11.31,11.31,0,0,0,2.2-.5c3-.8,3.5-1,4.6-1.2a13.52,13.52,0,0,1,4.6.6c2.7.7,3.8,2.6,5,4,1.7,2,2.4,2.9,4.3,7,1.4,3.1,1.8,5.9,4.2,10.6,2.7,5.1,4.2,5.7,5.3,6.7a19.44,19.44,0,0,0,6.3,4.1,21.76,21.76,0,0,0,7.4,1.2c4.1.1,4.1.1,7.4.3,4.4.3,4.4,0,5.5-.2a20.57,20.57,0,0,0,7.1-2.5,7.88,7.88,0,0,0,3.4-4.6c.5-2.2-.2-4-1.2-6.5a27.78,27.78,0,0,0-4.8-7.4,28.26,28.26,0,0,0-5.4-5.5c-3.6-2.6-6.4-3.3-5.6-3.8,2.3-1.5,4.4-.3,5.6-2.9.3-.7-1-1.6-2.2-2.3-7.1-4.8-5.4-4.6-8.4-6.1a32.24,32.24,0,0,0-14.7-3.4c-6.1.1-6.4-.1-13.1-.2-3.7-.1-7,.9-9.7.4-5-1-9.8-1.9-9.8-1.9C212.9,271.2,213.4,270.1,212.9,270.8Z"/><path class="cls-6" d="M172.7,240.5c-1.1.2-.4,7.7-.3,8.6a69.94,69.94,0,0,0,2.2,11.5c1.3,5.2,2.1,8.2,4,12.1a49.23,49.23,0,0,0,5.5,8.9,59.44,59.44,0,0,0,8.1,8.4,116.05,116.05,0,0,0,12.3,9.5c3.1,2.2,4.5,3.1,8,5.7a61.64,61.64,0,0,1,6.9,5.7,56.72,56.72,0,0,1,5.8,7.2,69.49,69.49,0,0,1,5.7,8.9,37.33,37.33,0,0,1,3.5,8.1c.9,3,.6,3.7,1.5,6.6a36.86,36.86,0,0,0,3.4,7.5c2.8,4.3,6.5,6.4,10.8,8.8a42.28,42.28,0,0,0,38.4,2.7,32.45,32.45,0,0,0,11.5-6.9,26.74,26.74,0,0,0,6-8.3,17.24,17.24,0,0,0,1.8-7.2c0-1.3-.2-.4-1.5-6.7-.1-.4-.2-.9-.5-1-.8-.2-1.4,3-3.7,5.1a10.93,10.93,0,0,1-4.6,2.2,83.42,83.42,0,0,1-18.9,2.9c-7.7.1-11.5.1-16-1.2a33.07,33.07,0,0,1-15.4-9.2c-2.6-2.9-4.8-8.1-9.1-18.4-2.7-6.5-3.6-9.4-6.5-14s-3.2-3.4-6.6-8.6-1.8-8.2-5.9-9.9c-1.1-.4-4.1-.7-6.1-1.2a43.32,43.32,0,0,1-12.1-5.2,63.13,63.13,0,0,1-11.7-8.8,64,64,0,0,1-9.1-10.8c-3.1-4.8-4.8-8-4.8-8C173.9,242.3,173.2,240.4,172.7,240.5Z"/><path class="cls-7" d="M309.3,282.4a26.53,26.53,0,0,1,1,7.1,21.28,21.28,0,0,1-.5,6.2,25.24,25.24,0,0,1-2,4.3,27.8,27.8,0,0,1-3.9,4.9c-1.5,1.8-1.5,2.7-2.6,3.4-1.3.9-3.1,1.1-3.9,2.3a3,3,0,0,0-.6,2.5c.1.2.2.6,1.5,1.4a8.06,8.06,0,0,0,3.4,1.5,9.3,9.3,0,0,0,2.9,0,27.29,27.29,0,0,0,4.3-.8,14.81,14.81,0,0,0,8.2-7.7c2.6-5.4,1.3-10.6.4-13.4a26.42,26.42,0,0,0-3.1-6.3"/><path class="cls-6" d="M181,162.3c-1.1.2-1.7,2.3-2.9,6.5a54.84,54.84,0,0,0-1.5,6.8c-.8,4.2-1,7.5-1.1,8.1a46.48,46.48,0,0,0-.2,9.1,36.45,36.45,0,0,0,1.4,7.2,31.62,31.62,0,0,0,2.5,6.8,13.52,13.52,0,0,0,2.8,4.1,18.55,18.55,0,0,0,5.5,3.9,9,9,0,0,0,3.5,1c1.4.2,3.3.9,3.5.2s-8.9-2.6-11.5-12.9c-1.7-6.6-1.1-9.2-.9-10.4.1-.5,1.5,3.4,3.9,6.4,7.1,9,5.1,7.9,5.7,6.9,1.4-2.3-.2-12.2-.2-12.2a87,87,0,0,0-1.2-9.5c-.4-2.2-.4-5-1.7-8.4-1-2.8-1.3-4.6-2.6-6.9C183.5,164.4,182.2,162.1,181,162.3Z"/></g><g id="Layer_8" data-name="Layer 8"><path class="cls-4" d="M310.2,249.5c.5,4.7.1,5.2.7,6,2.4,3.2,13.3,1.8,14.7-3,.7-2.4-1.3-4.9-1.9-5.6-3.9-4.8-12.3-5.2-14-2.6C309.4,245,309.7,245.4,310.2,249.5Z"/><path class="cls-4" d="M221.8,219c-.2.4,0,.9.5,1.8,1.5,3.2,3.1,5.2,5.1,6,.6.2.1.9,0,1.7a20.85,20.85,0,0,0,2.2,10c1.8,4.5,4.5,8,4.8,7.8s-1.3-2.2-1.5-5.5a8.65,8.65,0,0,1,2.6-7c.3-.3,3.6-2.1,3.6-2.1s8,5.8,7.3,6.5c-1.1.8-4.3-.4-4.3-.4a22,22,0,0,1-4.5-2.2c-1.1,3.7-1.4,7.2,3.4,11.2,2.1,1.8,9.2,2.8,12.4-2.6l3.5,2.5c-.9,2.7-1.1,4.8-3.5,6.5-.8.5,2.9.5,4.8.3,2.7-.3,2.6-.2,3.4.1,5.9,1.9,6.4,15,6.4,15s5.3-10.9,4.8-15.5c-.1-1.1,1.8-.4,3-1.2,5.3-3.6,5.9-10.4,6.1-11.3,0,0,3.2-8.2-4.8-17-.2-.2-.5-.9-.7-.8s.2,2.5.3,3.2c.7,3.6-.3,10.2-4.1,13.8-5.1,4.8-9.8,1.1-10.3,1.1-2.6-.3-4.9-4.3-10.1-9.5a45,45,0,0,0-14-9.8C231.1,218.3,221.8,219,221.8,219Z"/><path class="cls-4" d="M181.7,162.1c-.1.1,3.6,5.3,4,6.3,5.8,14,6.5,27,6,37.8,0,.2-.4-.1-1.4-1.2-5.4-6.4-7.2-12.6-8.1-12.4-.6.1-.2,2.6-.3,5.4-.2,7.1,4.1,11.9,8.4,15.8,8.6,8,21.6,7,21.9,6,.1-.3-.8-.1-2-1.3-2.5-2.4-3.1-5.7-3.4-7.5-1.3-7.8-1.2-14.4-2.3-19.2a38.11,38.11,0,0,0-6-15.2C192.1,166.8,182,161.8,181.7,162.1Z"/><path class="cls-4" d="M297.4,343.8c.9,2.1-4.3,7-4.5,7.1-3.9,3.4-8.4,4.6-12.1,5.5a17.25,17.25,0,0,1-7.8.4,20.69,20.69,0,0,0,2.5-1.1,13.08,13.08,0,0,0,2.6-1.8c-.1-.3-5.9-.3-7.7-.8a27.8,27.8,0,0,1-6.1-2c-4.8-2.1-5.3-5.2-5.3-5.2a57.17,57.17,0,0,0,19.6,1.9c2.5-.3,12.3-.4,18.8-4"/></g><g id="Layer_9" data-name="Layer 9"><path d="M310.6,250.1l7.1-2.4a5.79,5.79,0,0,1-1.2,2.5,5.12,5.12,0,0,1-3.8,1.2C312.2,251.4,310.6,250.1,310.6,250.1Z"/><path d="M309.8,251.4s-2,4.8,1.3,7c1.6,1.1,7.9.5,11.3-1.2.3-.1,4.2-2.6,5.2-6.1a5.17,5.17,0,0,0-.7-4.5,11.42,11.42,0,0,0-2.6-2.3l-2.3,1.3s3.6,6.1-2.3,9.6C312.5,259.4,309.8,251.4,309.8,251.4Z"/><path d="M239.2,231.6l7.1,6.3c-.3.8-1.7.9-2.5.9-3.9-1-4.1-1.4-4.9-2-1.1-.8-1.6.8-1.8,2.1a8.76,8.76,0,0,0-.1,2.2c.3,2.3,2.3,4.8,4.5,6.1,8.8,3.1,11.8-3.6,11.8-3.6.5.2,3.9,3,3.9,3,.5,1.2-2.2,5.1-4,6.6a34,34,0,0,1-12.6-2.9c-5.8-2.6-7.5-5.2-7.5-11.7,0-2.3,1.6-4.8,2.2-5.1C235.2,233.6,238,231.4,239.2,231.6Z"/><path d="M271,330.3a14,14,0,0,1-1.1-4.8c.2-6.2.4-6.2.4-6.2-3.5-.6-4.3-.2-9.4-.9a25.74,25.74,0,0,0,3.2,6.8A12.58,12.58,0,0,0,271,330.3Z"/><path d="M259.6,325.8a43.72,43.72,0,0,1-2.3,4.5c-1,1.8-1.9,5.4-1.5,6.7,0,0,.2.4,3.9,1.8a39.59,39.59,0,0,0,3.9,1.4c.7.2,4,.6,4,.6"/><path d="M304.8,324.4c4.4-3.6,7.3-8.3,7.2-10.7l-3.1,1.6c-.3.1-4.3.8-4.3.8-.4.4,0,0,.2,3.9.2,5.9-1.1,3.3,0,4.4"/><path d="M299.6,325.8a40.3,40.3,0,0,1-2.9,6.7c-4.9,7.2-5.1,7-5.1,7s0,.3,6-1.5l3.6-1s.2-1.9.2-5.7C301.4,328.8,300,326.8,299.6,325.8Z"/></g><g id="Layer_10" data-name="Layer 10"><circle class="cls-8" cx="311.2" cy="208" r="3.1"/><circle class="cls-8" cx="291.9" cy="219.1" r="2.5"/><circle class="cls-8" cx="304.6" cy="184.3" r="3.1"/><circle class="cls-8" cx="292.5" cy="195.2" r="3.1"/><circle class="cls-9" cx="260" cy="219" r="2.5"/><circle class="cls-9" cx="268.6" cy="201.2" r="2.9"/><circle class="cls-8" cx="252.4" cy="178.9" r="2.1"/><circle class="cls-8" cx="319.4" cy="224.1" r="3.1"/><circle class="cls-8" cx="268.6" cy="186.4" r="2.1"/><circle class="cls-8" cx="245.6" cy="201.2" r="2.9"/><line class="cls-10" x1="204.4" y1="259.3" x2="204.8" y2="240.6"/><line class="cls-10" x1="203.4" y1="261.8" x2="226.8" y2="261.8"/><line class="cls-10" x1="186.1" y1="254" x2="196" y2="261.8"/><line class="cls-10" x1="196" y1="261.8" x2="201.7" y2="261.7"/><line class="cls-10" x1="226.8" y1="264.8" x2="226.8" y2="261.8"/><line class="cls-10" x1="186.1" y1="254" x2="186.1" y2="241"/><circle class="cls-9" cx="186.3" cy="238.3" r="2.5"/><circle class="cls-9" cx="204.4" cy="261.8" r="2.5"/><circle class="cls-8" cx="205.1" cy="237.4" r="3.3"/><circle class="cls-8" cx="245.4" cy="267.9" r="2.9"/><circle class="cls-8" cx="226.8" cy="267.9" r="2.9"/><line class="cls-10" x1="229.9" y1="267.9" x2="242.3" y2="267.9"/><line class="cls-10" x1="204.4" y1="268.3" x2="204.4" y2="264.3"/><circle class="cls-8" cx="181" cy="268.3" r="2.9"/><line class="cls-10" x1="184.1" y1="268.2" x2="204.2" y2="268.2"/><line class="cls-10" x1="196.3" y1="277.6" x2="196.3" y2="270.4"/><circle class="cls-8" cx="196.3" cy="280.3" r="2.5"/><line class="cls-10" x1="196.3" y1="270.4" x2="206.5" y2="270.4"/><line class="cls-10" x1="206.5" y1="270.4" x2="206.5" y2="267.8"/><line class="cls-10" x1="206.5" y1="267.8" x2="223.6" y2="267.9"/><line class="cls-10" x1="321.2" y1="273.5" x2="329.8" y2="266.9"/><circle class="cls-8" cx="318.7" cy="273.5" r="2.5"/><circle class="cls-9" cx="332.7" cy="266.9" r="2.9"/><circle class="cls-8" cx="253.1" cy="303.8" r="2.1"/><circle class="cls-8" cx="254.1" cy="292.7" r="2.1"/><circle class="cls-8" cx="262.4" cy="292.7" r="2.1"/><circle class="cls-8" cx="262.4" cy="303.8" r="2.1"/><circle class="cls-8" cx="272.9" cy="298.8" r="2.5"/><circle class="cls-8" cx="272.9" cy="310.6" r="2.5"/><line class="cls-10" x1="252.4" y1="181" x2="252" y2="195.2"/><line class="cls-10" x1="252" y1="195.2" x2="289.4" y2="195.2"/><line class="cls-10" x1="270.7" y1="186.4" x2="282.2" y2="186.4"/><line class="cls-10" x1="282.2" y1="186.4" x2="285.6" y2="189.3"/><line class="cls-10" x1="285.6" y1="189.3" x2="296.7" y2="189.3"/><line class="cls-10" x1="296.7" y1="189.3" x2="301.5" y2="184.3"/><line class="cls-10" x1="304.6" y1="187.4" x2="304.6" y2="201.2"/><line class="cls-10" x1="304.6" y1="201.2" x2="271.5" y2="201.2"/><line class="cls-10" x1="265.8" y1="201.2" x2="248.5" y2="201.2"/><line class="cls-10" x1="245.6" y1="204.1" x2="245.7" y2="208.3"/><line class="cls-10" x1="245.7" y1="207.9" x2="308.2" y2="208"/><line class="cls-10" x1="260" y1="216.5" x2="260" y2="212.7"/><line class="cls-10" x1="260" y1="212.7" x2="304.6" y2="212.7"/><line class="cls-10" x1="260" y1="212.7" x2="260" y2="216.5"/><line class="cls-8" x1="304.6" y1="212.7" x2="316.3" y2="223.7"/><line class="cls-8" x1="291.9" y1="221.6" x2="291.9" y2="225.8"/><line class="cls-8" x1="291.9" y1="225.8" x2="310.4" y2="225.8"/><line class="cls-8" x1="310.4" y1="225.8" x2="313.2" y2="230.6"/><line class="cls-8" x1="313.2" y1="230.6" x2="319.6" y2="230.8"/><line class="cls-8" x1="319.6" y1="230.8" x2="319.4" y2="227.2"/><line class="cls-8" x1="256.2" y1="292.7" x2="260.4" y2="292.7"/><line class="cls-8" x1="255.1" y1="303.8" x2="260.4" y2="303.8"/><line class="cls-8" x1="254.1" y1="294.8" x2="254.3" y2="298.7"/><line class="cls-8" x1="254.3" y1="298.7" x2="270.5" y2="298.8"/><line class="cls-10" x1="272.9" y1="301.2" x2="272.9" y2="308.2"/><line class="cls-10" x1="253.1" y1="305.8" x2="253.1" y2="310.6"/><line class="cls-10" x1="253.1" y1="310.6" x2="270.5" y2="310.6"/><circle class="cls-8" cx="310.8" cy="310.2" r="2.5"/><line class="cls-10" x1="313.7" y1="303.8" x2="311.8" y2="308"/><circle class="cls-8" cx="314.1" cy="301.2" r="2.5"/></g><path class="cls-4" d="M308,247.8"/></svg>